%TF.GenerationSoftware,KiCad,Pcbnew,6.0.11-2627ca5db0~126~ubuntu22.04.1*%
%TF.CreationDate,2026-06-25T22:48:54+05:30*%
%TF.ProjectId,h,682e6b69-6361-4645-9f70-636258585858,rev?*%
%TF.SameCoordinates,Original*%
%TF.FileFunction,Legend,Bot*%
%TF.FilePolarity,Positive*%
%FSLAX46Y46*%
G04 Gerber Fmt 4.6, Leading zero omitted, Abs format (unit mm)*
G04 Created by KiCad (PCBNEW 6.0.11-2627ca5db0~126~ubuntu22.04.1) date 2026-06-25 22:48:54*
%MOMM*%
%LPD*%
G01*
G04 APERTURE LIST*
%ADD10C,0.100000*%
%ADD11C,0.150000*%
%ADD12C,0.120000*%
%ADD13C,0.127000*%
%ADD14C,0.200000*%
G04 APERTURE END LIST*
D10*
%TO.C,PSW1*%
X120076952Y-88809142D02*
X119676952Y-88809142D01*
X119676952Y-88999619D01*
X119696000Y-89047238D01*
X119715047Y-89071047D01*
X119753142Y-89094857D01*
X119810285Y-89094857D01*
X119848380Y-89071047D01*
X119867428Y-89047238D01*
X119886476Y-88999619D01*
X119886476Y-88809142D01*
X120057904Y-89285333D02*
X120076952Y-89356761D01*
X120076952Y-89475809D01*
X120057904Y-89523428D01*
X120038857Y-89547238D01*
X120000761Y-89571047D01*
X119962666Y-89571047D01*
X119924571Y-89547238D01*
X119905523Y-89523428D01*
X119886476Y-89475809D01*
X119867428Y-89380571D01*
X119848380Y-89332952D01*
X119829333Y-89309142D01*
X119791238Y-89285333D01*
X119753142Y-89285333D01*
X119715047Y-89309142D01*
X119696000Y-89332952D01*
X119676952Y-89380571D01*
X119676952Y-89499619D01*
X119696000Y-89571047D01*
X119676952Y-89737714D02*
X120076952Y-89856761D01*
X119791238Y-89952000D01*
X120076952Y-90047238D01*
X119676952Y-90166285D01*
X120076952Y-90618666D02*
X120076952Y-90332952D01*
X120076952Y-90475809D02*
X119676952Y-90475809D01*
X119734095Y-90428190D01*
X119772190Y-90380571D01*
X119791238Y-90332952D01*
D11*
%TO.C,C8*%
X129197646Y-79032341D02*
X129245265Y-78984722D01*
X129292884Y-78841865D01*
X129292884Y-78746627D01*
X129245265Y-78603769D01*
X129150027Y-78508531D01*
X129054789Y-78460912D01*
X128864313Y-78413293D01*
X128721456Y-78413293D01*
X128530980Y-78460912D01*
X128435742Y-78508531D01*
X128340504Y-78603769D01*
X128292884Y-78746627D01*
X128292884Y-78841865D01*
X128340504Y-78984722D01*
X128388123Y-79032341D01*
X128721456Y-79603769D02*
X128673837Y-79508531D01*
X128626218Y-79460912D01*
X128530980Y-79413293D01*
X128483361Y-79413293D01*
X128388123Y-79460912D01*
X128340504Y-79508531D01*
X128292884Y-79603769D01*
X128292884Y-79794246D01*
X128340504Y-79889484D01*
X128388123Y-79937103D01*
X128483361Y-79984722D01*
X128530980Y-79984722D01*
X128626218Y-79937103D01*
X128673837Y-79889484D01*
X128721456Y-79794246D01*
X128721456Y-79603769D01*
X128769075Y-79508531D01*
X128816694Y-79460912D01*
X128911932Y-79413293D01*
X129102408Y-79413293D01*
X129197646Y-79460912D01*
X129245265Y-79508531D01*
X129292884Y-79603769D01*
X129292884Y-79794246D01*
X129245265Y-79889484D01*
X129197646Y-79937103D01*
X129102408Y-79984722D01*
X128911932Y-79984722D01*
X128816694Y-79937103D01*
X128769075Y-79889484D01*
X128721456Y-79794246D01*
%TO.C,R1*%
X112562380Y-65545333D02*
X112086190Y-65212000D01*
X112562380Y-64973904D02*
X111562380Y-64973904D01*
X111562380Y-65354857D01*
X111610000Y-65450095D01*
X111657619Y-65497714D01*
X111752857Y-65545333D01*
X111895714Y-65545333D01*
X111990952Y-65497714D01*
X112038571Y-65450095D01*
X112086190Y-65354857D01*
X112086190Y-64973904D01*
X112562380Y-66497714D02*
X112562380Y-65926285D01*
X112562380Y-66212000D02*
X111562380Y-66212000D01*
X111705238Y-66116761D01*
X111800476Y-66021523D01*
X111848095Y-65926285D01*
%TO.C,VR1*%
X124481523Y-81060380D02*
X124148190Y-82060380D01*
X123814857Y-81060380D01*
X122910095Y-82060380D02*
X123243428Y-81584190D01*
X123481523Y-82060380D02*
X123481523Y-81060380D01*
X123100571Y-81060380D01*
X123005333Y-81108000D01*
X122957714Y-81155619D01*
X122910095Y-81250857D01*
X122910095Y-81393714D01*
X122957714Y-81488952D01*
X123005333Y-81536571D01*
X123100571Y-81584190D01*
X123481523Y-81584190D01*
X121957714Y-82060380D02*
X122529142Y-82060380D01*
X122243428Y-82060380D02*
X122243428Y-81060380D01*
X122338666Y-81203238D01*
X122433904Y-81298476D01*
X122529142Y-81346095D01*
%TO.C,BT1*%
X122341714Y-100732571D02*
X122198857Y-100780190D01*
X122151238Y-100827809D01*
X122103619Y-100923047D01*
X122103619Y-101065904D01*
X122151238Y-101161142D01*
X122198857Y-101208761D01*
X122294095Y-101256380D01*
X122675047Y-101256380D01*
X122675047Y-100256380D01*
X122341714Y-100256380D01*
X122246476Y-100304000D01*
X122198857Y-100351619D01*
X122151238Y-100446857D01*
X122151238Y-100542095D01*
X122198857Y-100637333D01*
X122246476Y-100684952D01*
X122341714Y-100732571D01*
X122675047Y-100732571D01*
X121817904Y-100256380D02*
X121246476Y-100256380D01*
X121532190Y-101256380D02*
X121532190Y-100256380D01*
X120389333Y-101256380D02*
X120960761Y-101256380D01*
X120675047Y-101256380D02*
X120675047Y-100256380D01*
X120770285Y-100399238D01*
X120865523Y-100494476D01*
X120960761Y-100542095D01*
%TO.C,LoRa1*%
X137468380Y-57701571D02*
X137468380Y-57225380D01*
X136468380Y-57225380D01*
X137468380Y-58177761D02*
X137420761Y-58082523D01*
X137373142Y-58034904D01*
X137277904Y-57987285D01*
X136992190Y-57987285D01*
X136896952Y-58034904D01*
X136849333Y-58082523D01*
X136801714Y-58177761D01*
X136801714Y-58320619D01*
X136849333Y-58415857D01*
X136896952Y-58463476D01*
X136992190Y-58511095D01*
X137277904Y-58511095D01*
X137373142Y-58463476D01*
X137420761Y-58415857D01*
X137468380Y-58320619D01*
X137468380Y-58177761D01*
X137468380Y-59511095D02*
X136992190Y-59177761D01*
X137468380Y-58939666D02*
X136468380Y-58939666D01*
X136468380Y-59320619D01*
X136516000Y-59415857D01*
X136563619Y-59463476D01*
X136658857Y-59511095D01*
X136801714Y-59511095D01*
X136896952Y-59463476D01*
X136944571Y-59415857D01*
X136992190Y-59320619D01*
X136992190Y-58939666D01*
X137468380Y-60368238D02*
X136944571Y-60368238D01*
X136849333Y-60320619D01*
X136801714Y-60225380D01*
X136801714Y-60034904D01*
X136849333Y-59939666D01*
X137420761Y-60368238D02*
X137468380Y-60273000D01*
X137468380Y-60034904D01*
X137420761Y-59939666D01*
X137325523Y-59892047D01*
X137230285Y-59892047D01*
X137135047Y-59939666D01*
X137087428Y-60034904D01*
X137087428Y-60273000D01*
X137039809Y-60368238D01*
X137468380Y-61368238D02*
X137468380Y-60796809D01*
X137468380Y-61082523D02*
X136468380Y-61082523D01*
X136611238Y-60987285D01*
X136706476Y-60892047D01*
X136754095Y-60796809D01*
%TO.C,M1*%
X125797523Y-71852380D02*
X125797523Y-70852380D01*
X125464190Y-71566666D01*
X125130857Y-70852380D01*
X125130857Y-71852380D01*
X124130857Y-71852380D02*
X124702285Y-71852380D01*
X124416571Y-71852380D02*
X124416571Y-70852380D01*
X124511809Y-70995238D01*
X124607047Y-71090476D01*
X124702285Y-71138095D01*
%TO.C,U2*%
X127291904Y-95236380D02*
X127291904Y-96045904D01*
X127244285Y-96141142D01*
X127196666Y-96188761D01*
X127101428Y-96236380D01*
X126910952Y-96236380D01*
X126815714Y-96188761D01*
X126768095Y-96141142D01*
X126720476Y-96045904D01*
X126720476Y-95236380D01*
X126291904Y-95331619D02*
X126244285Y-95284000D01*
X126149047Y-95236380D01*
X125910952Y-95236380D01*
X125815714Y-95284000D01*
X125768095Y-95331619D01*
X125720476Y-95426857D01*
X125720476Y-95522095D01*
X125768095Y-95664952D01*
X126339523Y-96236380D01*
X125720476Y-96236380D01*
%TO.C,C1*%
X109001000Y-51873857D02*
X109036714Y-51909571D01*
X109143857Y-51945285D01*
X109215285Y-51945285D01*
X109322428Y-51909571D01*
X109393857Y-51838142D01*
X109429571Y-51766714D01*
X109465285Y-51623857D01*
X109465285Y-51516714D01*
X109429571Y-51373857D01*
X109393857Y-51302428D01*
X109322428Y-51231000D01*
X109215285Y-51195285D01*
X109143857Y-51195285D01*
X109036714Y-51231000D01*
X109001000Y-51266714D01*
X108286714Y-51945285D02*
X108715285Y-51945285D01*
X108501000Y-51945285D02*
X108501000Y-51195285D01*
X108572428Y-51302428D01*
X108643857Y-51373857D01*
X108715285Y-51409571D01*
%TO.C,C9*%
X129565414Y-89013142D02*
X129613033Y-89060761D01*
X129755890Y-89108380D01*
X129851128Y-89108380D01*
X129993986Y-89060761D01*
X130089224Y-88965523D01*
X130136843Y-88870285D01*
X130184462Y-88679809D01*
X130184462Y-88536952D01*
X130136843Y-88346476D01*
X130089224Y-88251238D01*
X129993986Y-88156000D01*
X129851128Y-88108380D01*
X129755890Y-88108380D01*
X129613033Y-88156000D01*
X129565414Y-88203619D01*
X129089224Y-89108380D02*
X128898748Y-89108380D01*
X128803509Y-89060761D01*
X128755890Y-89013142D01*
X128660652Y-88870285D01*
X128613033Y-88679809D01*
X128613033Y-88298857D01*
X128660652Y-88203619D01*
X128708271Y-88156000D01*
X128803509Y-88108380D01*
X128993986Y-88108380D01*
X129089224Y-88156000D01*
X129136843Y-88203619D01*
X129184462Y-88298857D01*
X129184462Y-88536952D01*
X129136843Y-88632190D01*
X129089224Y-88679809D01*
X128993986Y-88727428D01*
X128803509Y-88727428D01*
X128708271Y-88679809D01*
X128660652Y-88632190D01*
X128613033Y-88536952D01*
%TO.C,D1*%
X126947795Y-76999640D02*
X126947795Y-75999640D01*
X126709700Y-75999640D01*
X126566842Y-76047260D01*
X126471604Y-76142498D01*
X126423985Y-76237736D01*
X126376366Y-76428212D01*
X126376366Y-76571069D01*
X126423985Y-76761545D01*
X126471604Y-76856783D01*
X126566842Y-76952021D01*
X126709700Y-76999640D01*
X126947795Y-76999640D01*
X125423985Y-76999640D02*
X125995414Y-76999640D01*
X125709700Y-76999640D02*
X125709700Y-75999640D01*
X125804938Y-76142498D01*
X125900176Y-76237736D01*
X125995414Y-76285355D01*
%TO.C,C7*%
X117855890Y-78900333D02*
X117903509Y-78852714D01*
X117951128Y-78709857D01*
X117951128Y-78614619D01*
X117903509Y-78471761D01*
X117808271Y-78376523D01*
X117713033Y-78328904D01*
X117522557Y-78281285D01*
X117379700Y-78281285D01*
X117189224Y-78328904D01*
X117093986Y-78376523D01*
X116998748Y-78471761D01*
X116951128Y-78614619D01*
X116951128Y-78709857D01*
X116998748Y-78852714D01*
X117046367Y-78900333D01*
X116951128Y-79233666D02*
X116951128Y-79900333D01*
X117951128Y-79471761D01*
%TO.C,J1*%
X141582380Y-103806666D02*
X142296666Y-103806666D01*
X142439523Y-103759047D01*
X142534761Y-103663809D01*
X142582380Y-103520952D01*
X142582380Y-103425714D01*
X142582380Y-104806666D02*
X142582380Y-104235238D01*
X142582380Y-104520952D02*
X141582380Y-104520952D01*
X141725238Y-104425714D01*
X141820476Y-104330476D01*
X141868095Y-104235238D01*
%TO.C,L2*%
X129594666Y-95390380D02*
X130070857Y-95390380D01*
X130070857Y-94390380D01*
X129308952Y-94485619D02*
X129261333Y-94438000D01*
X129166095Y-94390380D01*
X128928000Y-94390380D01*
X128832761Y-94438000D01*
X128785142Y-94485619D01*
X128737523Y-94580857D01*
X128737523Y-94676095D01*
X128785142Y-94818952D01*
X129356571Y-95390380D01*
X128737523Y-95390380D01*
%TO.C,C5*%
X136320666Y-66169142D02*
X136368285Y-66216761D01*
X136511142Y-66264380D01*
X136606380Y-66264380D01*
X136749238Y-66216761D01*
X136844476Y-66121523D01*
X136892095Y-66026285D01*
X136939714Y-65835809D01*
X136939714Y-65692952D01*
X136892095Y-65502476D01*
X136844476Y-65407238D01*
X136749238Y-65312000D01*
X136606380Y-65264380D01*
X136511142Y-65264380D01*
X136368285Y-65312000D01*
X136320666Y-65359619D01*
X135415904Y-65264380D02*
X135892095Y-65264380D01*
X135939714Y-65740571D01*
X135892095Y-65692952D01*
X135796857Y-65645333D01*
X135558761Y-65645333D01*
X135463523Y-65692952D01*
X135415904Y-65740571D01*
X135368285Y-65835809D01*
X135368285Y-66073904D01*
X135415904Y-66169142D01*
X135463523Y-66216761D01*
X135558761Y-66264380D01*
X135796857Y-66264380D01*
X135892095Y-66216761D01*
X135939714Y-66169142D01*
%TO.C,C4*%
X115009142Y-56447333D02*
X115056761Y-56399714D01*
X115104380Y-56256857D01*
X115104380Y-56161619D01*
X115056761Y-56018761D01*
X114961523Y-55923523D01*
X114866285Y-55875904D01*
X114675809Y-55828285D01*
X114532952Y-55828285D01*
X114342476Y-55875904D01*
X114247238Y-55923523D01*
X114152000Y-56018761D01*
X114104380Y-56161619D01*
X114104380Y-56256857D01*
X114152000Y-56399714D01*
X114199619Y-56447333D01*
X114437714Y-57304476D02*
X115104380Y-57304476D01*
X114056761Y-57066380D02*
X114771047Y-56828285D01*
X114771047Y-57447333D01*
%TO.C,C10*%
X126424109Y-88627142D02*
X126471728Y-88674761D01*
X126614585Y-88722380D01*
X126709823Y-88722380D01*
X126852680Y-88674761D01*
X126947918Y-88579523D01*
X126995537Y-88484285D01*
X127043156Y-88293809D01*
X127043156Y-88150952D01*
X126995537Y-87960476D01*
X126947918Y-87865238D01*
X126852680Y-87770000D01*
X126709823Y-87722380D01*
X126614585Y-87722380D01*
X126471728Y-87770000D01*
X126424109Y-87817619D01*
X125471728Y-88722380D02*
X126043156Y-88722380D01*
X125757442Y-88722380D02*
X125757442Y-87722380D01*
X125852680Y-87865238D01*
X125947918Y-87960476D01*
X126043156Y-88008095D01*
X124852680Y-87722380D02*
X124757442Y-87722380D01*
X124662204Y-87770000D01*
X124614585Y-87817619D01*
X124566966Y-87912857D01*
X124519347Y-88103333D01*
X124519347Y-88341428D01*
X124566966Y-88531904D01*
X124614585Y-88627142D01*
X124662204Y-88674761D01*
X124757442Y-88722380D01*
X124852680Y-88722380D01*
X124947918Y-88674761D01*
X124995537Y-88627142D01*
X125043156Y-88531904D01*
X125090775Y-88341428D01*
X125090775Y-88103333D01*
X125043156Y-87912857D01*
X124995537Y-87817619D01*
X124947918Y-87770000D01*
X124852680Y-87722380D01*
%TO.C,C6*%
X137679142Y-71151333D02*
X137726761Y-71103714D01*
X137774380Y-70960857D01*
X137774380Y-70865619D01*
X137726761Y-70722761D01*
X137631523Y-70627523D01*
X137536285Y-70579904D01*
X137345809Y-70532285D01*
X137202952Y-70532285D01*
X137012476Y-70579904D01*
X136917238Y-70627523D01*
X136822000Y-70722761D01*
X136774380Y-70865619D01*
X136774380Y-70960857D01*
X136822000Y-71103714D01*
X136869619Y-71151333D01*
X136774380Y-72008476D02*
X136774380Y-71818000D01*
X136822000Y-71722761D01*
X136869619Y-71675142D01*
X137012476Y-71579904D01*
X137202952Y-71532285D01*
X137583904Y-71532285D01*
X137679142Y-71579904D01*
X137726761Y-71627523D01*
X137774380Y-71722761D01*
X137774380Y-71913238D01*
X137726761Y-72008476D01*
X137679142Y-72056095D01*
X137583904Y-72103714D01*
X137345809Y-72103714D01*
X137250571Y-72056095D01*
X137202952Y-72008476D01*
X137155333Y-71913238D01*
X137155333Y-71722761D01*
X137202952Y-71627523D01*
X137250571Y-71579904D01*
X137345809Y-71532285D01*
%TO.C,C2*%
X115508666Y-42763142D02*
X115556285Y-42810761D01*
X115699142Y-42858380D01*
X115794380Y-42858380D01*
X115937238Y-42810761D01*
X116032476Y-42715523D01*
X116080095Y-42620285D01*
X116127714Y-42429809D01*
X116127714Y-42286952D01*
X116080095Y-42096476D01*
X116032476Y-42001238D01*
X115937238Y-41906000D01*
X115794380Y-41858380D01*
X115699142Y-41858380D01*
X115556285Y-41906000D01*
X115508666Y-41953619D01*
X115127714Y-41953619D02*
X115080095Y-41906000D01*
X114984857Y-41858380D01*
X114746761Y-41858380D01*
X114651523Y-41906000D01*
X114603904Y-41953619D01*
X114556285Y-42048857D01*
X114556285Y-42144095D01*
X114603904Y-42286952D01*
X115175333Y-42858380D01*
X114556285Y-42858380D01*
%TO.C,Q1*%
X119903238Y-71797619D02*
X119998476Y-71750000D01*
X120093714Y-71654761D01*
X120236571Y-71511904D01*
X120331809Y-71464285D01*
X120427047Y-71464285D01*
X120379428Y-71702380D02*
X120474666Y-71654761D01*
X120569904Y-71559523D01*
X120617523Y-71369047D01*
X120617523Y-71035714D01*
X120569904Y-70845238D01*
X120474666Y-70750000D01*
X120379428Y-70702380D01*
X120188952Y-70702380D01*
X120093714Y-70750000D01*
X119998476Y-70845238D01*
X119950857Y-71035714D01*
X119950857Y-71369047D01*
X119998476Y-71559523D01*
X120093714Y-71654761D01*
X120188952Y-71702380D01*
X120379428Y-71702380D01*
X118998476Y-71702380D02*
X119569904Y-71702380D01*
X119284190Y-71702380D02*
X119284190Y-70702380D01*
X119379428Y-70845238D01*
X119474666Y-70940476D01*
X119569904Y-70988095D01*
%TO.C,C3*%
X109453918Y-54699142D02*
X109501537Y-54746761D01*
X109644394Y-54794380D01*
X109739632Y-54794380D01*
X109882490Y-54746761D01*
X109977728Y-54651523D01*
X110025347Y-54556285D01*
X110072966Y-54365809D01*
X110072966Y-54222952D01*
X110025347Y-54032476D01*
X109977728Y-53937238D01*
X109882490Y-53842000D01*
X109739632Y-53794380D01*
X109644394Y-53794380D01*
X109501537Y-53842000D01*
X109453918Y-53889619D01*
X109120585Y-53794380D02*
X108501537Y-53794380D01*
X108834871Y-54175333D01*
X108692013Y-54175333D01*
X108596775Y-54222952D01*
X108549156Y-54270571D01*
X108501537Y-54365809D01*
X108501537Y-54603904D01*
X108549156Y-54699142D01*
X108596775Y-54746761D01*
X108692013Y-54794380D01*
X108977728Y-54794380D01*
X109072966Y-54746761D01*
X109120585Y-54699142D01*
%TO.C,R5*%
X134718380Y-83093333D02*
X134242190Y-82760000D01*
X134718380Y-82521904D02*
X133718380Y-82521904D01*
X133718380Y-82902857D01*
X133766000Y-82998095D01*
X133813619Y-83045714D01*
X133908857Y-83093333D01*
X134051714Y-83093333D01*
X134146952Y-83045714D01*
X134194571Y-82998095D01*
X134242190Y-82902857D01*
X134242190Y-82521904D01*
X133718380Y-83998095D02*
X133718380Y-83521904D01*
X134194571Y-83474285D01*
X134146952Y-83521904D01*
X134099333Y-83617142D01*
X134099333Y-83855238D01*
X134146952Y-83950476D01*
X134194571Y-83998095D01*
X134289809Y-84045714D01*
X134527904Y-84045714D01*
X134623142Y-83998095D01*
X134670761Y-83950476D01*
X134718380Y-83855238D01*
X134718380Y-83617142D01*
X134670761Y-83521904D01*
X134623142Y-83474285D01*
D12*
%TO.C,C8*%
X126425504Y-79460260D02*
X126425504Y-78937756D01*
X127895504Y-79460260D02*
X127895504Y-78937756D01*
%TO.C,R1*%
X111154000Y-62442000D02*
X110824000Y-62442000D01*
X113234000Y-62442000D02*
X113564000Y-62442000D01*
X110824000Y-68982000D02*
X111154000Y-68982000D01*
X113564000Y-68982000D02*
X113234000Y-68982000D01*
X110824000Y-62442000D02*
X110824000Y-68982000D01*
X113564000Y-62442000D02*
X113564000Y-68982000D01*
%TO.C,VR1*%
X123172000Y-80768000D02*
X121372000Y-80768000D01*
X123172000Y-77648000D02*
X123972000Y-77648000D01*
X123172000Y-80768000D02*
X123972000Y-80768000D01*
X123172000Y-77648000D02*
X122372000Y-77648000D01*
%TO.C,BT1*%
X118146000Y-101894000D02*
X118146000Y-103494000D01*
X117986000Y-107454000D02*
X118986000Y-107454000D01*
X121586000Y-107454000D02*
X121586000Y-105854000D01*
X117226000Y-103494000D02*
X118146000Y-103494000D01*
X120786000Y-109714000D02*
X120786000Y-105354000D01*
X122586000Y-105854000D02*
X122586000Y-107454000D01*
X122146000Y-103494000D02*
X122426000Y-103494000D01*
X123346000Y-103494000D02*
X122426000Y-103494000D01*
X122426000Y-101894000D02*
X123346000Y-101894000D01*
X123346000Y-101894000D02*
X123346000Y-109714000D01*
X122146000Y-103494000D02*
X122146000Y-102279000D01*
X117226000Y-101894000D02*
X118146000Y-101894000D01*
X123346000Y-109714000D02*
X117226000Y-109714000D01*
X122426000Y-103494000D02*
X122426000Y-101894000D01*
X121586000Y-107454000D02*
X121586000Y-109714000D01*
X122586000Y-107454000D02*
X121586000Y-107454000D01*
X121586000Y-105854000D02*
X122586000Y-105854000D01*
X122086000Y-107454000D02*
X122086000Y-109714000D01*
X117986000Y-105854000D02*
X117986000Y-107454000D01*
X118986000Y-105854000D02*
X117986000Y-105854000D01*
X120786000Y-105354000D02*
X119786000Y-105354000D01*
X117226000Y-109714000D02*
X117226000Y-101894000D01*
X119786000Y-105354000D02*
X119786000Y-109714000D01*
X118986000Y-107454000D02*
X118986000Y-105854000D01*
X118146000Y-103494000D02*
X118426000Y-103494000D01*
D13*
%TO.C,LoRa1*%
X118881000Y-62448000D02*
X118881000Y-46448000D01*
X135881000Y-62448000D02*
X135881000Y-46448000D01*
D14*
X134481000Y-64024000D02*
G75*
G03*
X134481000Y-64024000I-100000J0D01*
G01*
D12*
%TO.C,U2*%
X126530000Y-94944000D02*
X127330000Y-94944000D01*
X126530000Y-91824000D02*
X125730000Y-91824000D01*
X126530000Y-94944000D02*
X124730000Y-94944000D01*
X126530000Y-91824000D02*
X127330000Y-91824000D01*
%TO.C,C1*%
X111064748Y-52211000D02*
X111587252Y-52211000D01*
X111064748Y-50741000D02*
X111587252Y-50741000D01*
%TO.C,C9*%
X129660000Y-91071000D02*
X129137496Y-91071000D01*
X129660000Y-89601000D02*
X129137496Y-89601000D01*
%TO.C,D1*%
X129609700Y-72317260D02*
X129609700Y-75617260D01*
X129609700Y-72317260D02*
X124209700Y-72317260D01*
X129609700Y-75617260D02*
X124209700Y-75617260D01*
%TO.C,C7*%
X118639748Y-79328252D02*
X118639748Y-78805748D01*
X120109748Y-79328252D02*
X120109748Y-78805748D01*
%TO.C,J1*%
X138090000Y-102810000D02*
X125330000Y-102810000D01*
X138090000Y-105470000D02*
X138090000Y-102810000D01*
X125330000Y-105470000D02*
X125330000Y-102810000D01*
X140690000Y-104140000D02*
X140690000Y-102810000D01*
X138090000Y-105470000D02*
X125330000Y-105470000D01*
X140690000Y-102810000D02*
X139360000Y-102810000D01*
%TO.C,C5*%
X133621252Y-64979000D02*
X133098748Y-64979000D01*
X133621252Y-66449000D02*
X133098748Y-66449000D01*
%TO.C,C4*%
X113696000Y-53994000D02*
X113696000Y-59234000D01*
X110956000Y-53994000D02*
X111271000Y-53994000D01*
X113381000Y-53994000D02*
X113696000Y-53994000D01*
X113381000Y-59234000D02*
X113696000Y-59234000D01*
X110956000Y-59234000D02*
X111271000Y-59234000D01*
X110956000Y-53994000D02*
X110956000Y-59234000D01*
%TO.C,C10*%
X125236748Y-89665000D02*
X125759252Y-89665000D01*
X125236748Y-91135000D02*
X125759252Y-91135000D01*
%TO.C,C6*%
X131960437Y-68558000D02*
X130896000Y-69622437D01*
X131960437Y-68558000D02*
X132596000Y-68558000D01*
X131971000Y-67693000D02*
X131971000Y-68318000D01*
X131658500Y-68005500D02*
X132283500Y-68005500D01*
X135351563Y-68558000D02*
X134716000Y-68558000D01*
X135351563Y-68558000D02*
X136416000Y-69622437D01*
X130896000Y-74078000D02*
X132596000Y-74078000D01*
X130896000Y-69622437D02*
X130896000Y-74078000D01*
X136416000Y-69622437D02*
X136416000Y-74078000D01*
X136416000Y-74078000D02*
X134716000Y-74078000D01*
%TO.C,C2*%
X108282000Y-48616000D02*
X109982000Y-48616000D01*
X112737563Y-43096000D02*
X113802000Y-44160437D01*
X109357000Y-42231000D02*
X109357000Y-42856000D01*
X113802000Y-48616000D02*
X112102000Y-48616000D01*
X112737563Y-43096000D02*
X112102000Y-43096000D01*
X109346437Y-43096000D02*
X108282000Y-44160437D01*
X113802000Y-44160437D02*
X113802000Y-48616000D01*
X108282000Y-44160437D02*
X108282000Y-48616000D01*
X109346437Y-43096000D02*
X109982000Y-43096000D01*
X109044500Y-42543500D02*
X109669500Y-42543500D01*
%TO.C,Q1*%
X119808000Y-72090000D02*
X121483000Y-72090000D01*
X119808000Y-72090000D02*
X119158000Y-72090000D01*
X119808000Y-75210000D02*
X120458000Y-75210000D01*
X119808000Y-75210000D02*
X119158000Y-75210000D01*
%TO.C,C3*%
X108449252Y-56932748D02*
X108449252Y-58355252D01*
X110269252Y-56932748D02*
X110269252Y-58355252D01*
%TO.C,R5*%
X132812000Y-79990000D02*
X133142000Y-79990000D01*
X133142000Y-86530000D02*
X132812000Y-86530000D01*
X135552000Y-79990000D02*
X135222000Y-79990000D01*
X132812000Y-86530000D02*
X132812000Y-79990000D01*
X135222000Y-86530000D02*
X135552000Y-86530000D01*
X135552000Y-86530000D02*
X135552000Y-79990000D01*
%TD*%
M02*
