%TF.GenerationSoftware,KiCad,Pcbnew,6.0.11-2627ca5db0~126~ubuntu22.04.1*%
%TF.CreationDate,2026-06-25T22:48:54+05:30*%
%TF.ProjectId,h,682e6b69-6361-4645-9f70-636258585858,rev?*%
%TF.SameCoordinates,Original*%
%TF.FileFunction,Copper,L1,Top*%
%TF.FilePolarity,Positive*%
%FSLAX46Y46*%
G04 Gerber Fmt 4.6, Leading zero omitted, Abs format (unit mm)*
G04 Created by KiCad (PCBNEW 6.0.11-2627ca5db0~126~ubuntu22.04.1) date 2026-06-25 22:48:54*
%MOMM*%
%LPD*%
G01*
G04 APERTURE LIST*
G04 Aperture macros list*
%AMRoundRect*
0 Rectangle with rounded corners*
0 $1 Rounding radius*
0 $2 $3 $4 $5 $6 $7 $8 $9 X,Y pos of 4 corners*
0 Add a 4 corners polygon primitive as box body*
4,1,4,$2,$3,$4,$5,$6,$7,$8,$9,$2,$3,0*
0 Add four circle primitives for the rounded corners*
1,1,$1+$1,$2,$3*
1,1,$1+$1,$4,$5*
1,1,$1+$1,$6,$7*
1,1,$1+$1,$8,$9*
0 Add four rect primitives between the rounded corners*
20,1,$1+$1,$2,$3,$4,$5,0*
20,1,$1+$1,$4,$5,$6,$7,0*
20,1,$1+$1,$6,$7,$8,$9,0*
20,1,$1+$1,$8,$9,$2,$3,0*%
G04 Aperture macros list end*
%TA.AperFunction,SMDPad,CuDef*%
%ADD10RoundRect,1.250000X1.250000X1.250000X-1.250000X1.250000X-1.250000X-1.250000X1.250000X-1.250000X0*%
%TD*%
%TA.AperFunction,ComponentPad*%
%ADD11R,1.700000X1.700000*%
%TD*%
%TA.AperFunction,ComponentPad*%
%ADD12O,1.700000X1.700000*%
%TD*%
%TA.AperFunction,ComponentPad*%
%ADD13C,1.600000*%
%TD*%
%TA.AperFunction,ComponentPad*%
%ADD14O,1.600000X1.600000*%
%TD*%
%TA.AperFunction,SMDPad,CuDef*%
%ADD15RoundRect,1.250000X-1.250000X1.250000X-1.250000X-1.250000X1.250000X-1.250000X1.250000X1.250000X0*%
%TD*%
%TA.AperFunction,ComponentPad*%
%ADD16R,1.530000X1.530000*%
%TD*%
%TA.AperFunction,ComponentPad*%
%ADD17C,1.530000*%
%TD*%
%TA.AperFunction,SMDPad,CuDef*%
%ADD18RoundRect,1.250000X1.250000X-1.250000X1.250000X1.250000X-1.250000X1.250000X-1.250000X-1.250000X0*%
%TD*%
%TA.AperFunction,ComponentPad*%
%ADD19RoundRect,0.250000X0.350000X0.625000X-0.350000X0.625000X-0.350000X-0.625000X0.350000X-0.625000X0*%
%TD*%
%TA.AperFunction,ComponentPad*%
%ADD20O,1.200000X1.750000*%
%TD*%
%TA.AperFunction,ViaPad*%
%ADD21C,0.800000*%
%TD*%
%TA.AperFunction,Conductor*%
%ADD22C,0.250000*%
%TD*%
%TA.AperFunction,Conductor*%
%ADD23C,0.500000*%
%TD*%
G04 APERTURE END LIST*
D10*
%TO.P,SW4,1,A*%
%TO.N,GND*%
X120874000Y-98056000D03*
%TO.P,SW4,2,B*%
%TO.N,SW_DW*%
X128494000Y-98056000D03*
%TD*%
%TO.P,SW1,1,A*%
%TO.N,GND*%
X120690000Y-78146000D03*
%TO.P,SW1,2,B*%
%TO.N,SW_L*%
X128310000Y-78146000D03*
%TD*%
D11*
%TO.P,EP1,1,Pin_1*%
%TO.N,3V3*%
X124320000Y-41592500D03*
D12*
%TO.P,EP1,2,Pin_2*%
%TO.N,GND*%
X126860000Y-41592500D03*
%TO.P,EP1,3,Pin_3*%
%TO.N,SPI_MOSI*%
X129400000Y-41592500D03*
%TO.P,EP1,4,Pin_4*%
%TO.N,SPI_SCK*%
X131940000Y-41592500D03*
%TO.P,EP1,5,Pin_5*%
%TO.N,EP_CS*%
X134480000Y-41592500D03*
%TO.P,EP1,6,Pin_6*%
%TO.N,EP_DC*%
X137020000Y-41592500D03*
%TO.P,EP1,7,Pin_7*%
%TO.N,EP_RST*%
X139560000Y-41592500D03*
%TO.P,EP1,8,Pin_8*%
%TO.N,EP_BUSY*%
X142100000Y-41592500D03*
%TD*%
D10*
%TO.P,SW2,1,A*%
%TO.N,GND*%
X121014000Y-84624000D03*
%TO.P,SW2,2,B*%
%TO.N,SW_UP*%
X128634000Y-84624000D03*
%TD*%
D13*
%TO.P,R7,1*%
%TO.N,CC1*%
X141752000Y-67504000D03*
D14*
%TO.P,R7,2*%
%TO.N,GND*%
X141752000Y-75124000D03*
%TD*%
D15*
%TO.P,SW5,1,A*%
%TO.N,GND*%
X134888000Y-99216000D03*
%TO.P,SW5,2,B*%
%TO.N,SW_R*%
X134888000Y-91596000D03*
%TD*%
D13*
%TO.P,R2,1*%
%TO.N,Net-(L1-Pad2)*%
X142328000Y-56544000D03*
D14*
%TO.P,R2,2*%
%TO.N,GND*%
X142328000Y-48924000D03*
%TD*%
D16*
%TO.P,U1,J1_1,3V3*%
%TO.N,3V3*%
X115885000Y-45316000D03*
D17*
%TO.P,U1,J1_2,3V3*%
X115885000Y-47856000D03*
%TO.P,U1,J1_3,RST*%
%TO.N,unconnected-(U1-PadJ1_3)*%
X115885000Y-50396000D03*
%TO.P,U1,J1_4,GPIO4*%
%TO.N,LORA_CS*%
X115885000Y-52936000D03*
%TO.P,U1,J1_5,GPIO5*%
%TO.N,LORA_RST*%
X115885000Y-55476000D03*
%TO.P,U1,J1_6,GPIO6*%
%TO.N,LORA_DI00*%
X115885000Y-58016000D03*
%TO.P,U1,J1_7,GPIO7*%
%TO.N,Net-(R1-Pad1)*%
X115885000Y-60556000D03*
%TO.P,U1,J1_8,GPIO15*%
%TO.N,unconnected-(U1-PadJ1_8)*%
X115885000Y-63096000D03*
%TO.P,U1,J1_9,GPIO16*%
%TO.N,unconnected-(U1-PadJ1_9)*%
X115885000Y-65636000D03*
%TO.P,U1,J1_10,GPIO17*%
%TO.N,unconnected-(U1-PadJ1_10)*%
X115885000Y-68176000D03*
%TO.P,U1,J1_11,GPIO18*%
%TO.N,unconnected-(U1-PadJ1_11)*%
X115885000Y-70716000D03*
%TO.P,U1,J1_12,GPIO8*%
%TO.N,unconnected-(U1-PadJ1_12)*%
X115885000Y-73256000D03*
%TO.P,U1,J1_13,GPIO3*%
%TO.N,unconnected-(U1-PadJ1_13)*%
X115885000Y-75796000D03*
%TO.P,U1,J1_14,GPIO46*%
%TO.N,unconnected-(U1-PadJ1_14)*%
X115885000Y-78336000D03*
%TO.P,U1,J1_15,GPIO9*%
%TO.N,unconnected-(U1-PadJ1_15)*%
X115885000Y-80876000D03*
%TO.P,U1,J1_16,GPIO10*%
%TO.N,unconnected-(U1-PadJ1_16)*%
X115885000Y-83416000D03*
%TO.P,U1,J1_17,GPIO11*%
%TO.N,unconnected-(U1-PadJ1_17)*%
X115885000Y-85956000D03*
%TO.P,U1,J1_18,GPIO12*%
%TO.N,unconnected-(U1-PadJ1_18)*%
X115885000Y-88496000D03*
%TO.P,U1,J1_19,GPIO13*%
%TO.N,unconnected-(U1-PadJ1_19)*%
X115885000Y-91036000D03*
%TO.P,U1,J1_20,GPIO14*%
%TO.N,unconnected-(U1-PadJ1_20)*%
X115885000Y-93576000D03*
%TO.P,U1,J1_21,5V0*%
%TO.N,unconnected-(U1-PadJ1_21)*%
X115885000Y-96116000D03*
%TO.P,U1,J1_22,GND*%
%TO.N,GND*%
X115885000Y-98656000D03*
%TO.P,U1,J3_1,GND*%
X138745000Y-45316000D03*
%TO.P,U1,J3_2,U0TXD/GPIO43*%
%TO.N,STS_LED*%
X138745000Y-47856000D03*
%TO.P,U1,J3_3,U0RXD/GPIO44*%
%TO.N,EP_CS*%
X138745000Y-50396000D03*
%TO.P,U1,J3_4,GPIO1*%
%TO.N,EP_DC*%
X138745000Y-52936000D03*
%TO.P,U1,J3_5,GPIO2*%
%TO.N,EP_RST*%
X138745000Y-55476000D03*
%TO.P,U1,J3_6,MTMS/GPIO42*%
%TO.N,SPI_SCK*%
X138745000Y-58016000D03*
%TO.P,U1,J3_7,MTDI/GPIO41*%
%TO.N,SPI_MISO*%
X138745000Y-60556000D03*
%TO.P,U1,J3_8,MTDO/GPIO40*%
%TO.N,unconnected-(U1-PadJ3_8)*%
X138745000Y-63096000D03*
%TO.P,U1,J3_9,MTCK/GPIO39*%
%TO.N,SPI_MOSI*%
X138745000Y-65636000D03*
%TO.P,U1,J3_10,GPIO38*%
%TO.N,EP_BUSY*%
X138745000Y-68176000D03*
%TO.P,U1,J3_11,GPIO37*%
%TO.N,unconnected-(U1-PadJ3_11)*%
X138745000Y-70716000D03*
%TO.P,U1,J3_12,GPIO36*%
%TO.N,unconnected-(U1-PadJ3_12)*%
X138745000Y-73256000D03*
%TO.P,U1,J3_13,GPIO35*%
%TO.N,unconnected-(U1-PadJ3_13)*%
X138745000Y-75796000D03*
%TO.P,U1,J3_14,GPIO0*%
%TO.N,SW_L*%
X138745000Y-78336000D03*
%TO.P,U1,J3_15,GPIO45*%
%TO.N,SW_UP*%
X138745000Y-80876000D03*
%TO.P,U1,J3_16,GPIO48*%
%TO.N,SW_C*%
X138745000Y-83416000D03*
%TO.P,U1,J3_17,GPIO47*%
%TO.N,SW_DW*%
X138745000Y-85956000D03*
%TO.P,U1,J3_18,GPIO21*%
%TO.N,SW_R*%
X138745000Y-88496000D03*
%TO.P,U1,J3_19,USB_D+/GPIO20*%
%TO.N,unconnected-(U1-PadJ3_19)*%
X138745000Y-91036000D03*
%TO.P,U1,J3_20,USB_D-/GPIO19*%
%TO.N,unconnected-(U1-PadJ3_20)*%
X138745000Y-93576000D03*
%TO.P,U1,J3_21,GND*%
%TO.N,GND*%
X138745000Y-96116000D03*
%TO.P,U1,J3_22,GND*%
X138745000Y-98656000D03*
%TD*%
D10*
%TO.P,SW3,1,A*%
%TO.N,GND*%
X120942000Y-91298000D03*
%TO.P,SW3,2,B*%
%TO.N,SW_C*%
X128562000Y-91298000D03*
%TD*%
D13*
%TO.P,R4,1*%
%TO.N,GND*%
X112198000Y-80330000D03*
D14*
%TO.P,R4,2*%
%TO.N,GATE*%
X112198000Y-72710000D03*
%TD*%
D13*
%TO.P,R3,1*%
%TO.N,GND*%
X141702000Y-82444000D03*
D14*
%TO.P,R3,2*%
%TO.N,Net-(R3-Pad2)*%
X141702000Y-90064000D03*
%TD*%
D18*
%TO.P,L1,1,K*%
%TO.N,STS_LED*%
X133816000Y-48998000D03*
%TO.P,L1,2,A*%
%TO.N,Net-(L1-Pad2)*%
X133816000Y-56618000D03*
%TD*%
D13*
%TO.P,R6,1*%
%TO.N,Net-(L2-Pad2)*%
X141752000Y-100284000D03*
D14*
%TO.P,R6,2*%
%TO.N,MC_VDD*%
X141752000Y-92664000D03*
%TD*%
D13*
%TO.P,R1,1*%
%TO.N,Net-(R1-Pad1)*%
X112194000Y-61902000D03*
D14*
%TO.P,R1,2*%
%TO.N,GATE*%
X112194000Y-69522000D03*
%TD*%
D19*
%TO.P,BT1,1,Pin_1*%
%TO.N,BAT_RAW*%
X121286000Y-103354000D03*
D20*
%TO.P,BT1,2,Pin_2*%
%TO.N,GND*%
X119286000Y-103354000D03*
%TD*%
D11*
%TO.P,J1,1*%
%TO.N,MC_VDD*%
X139360000Y-104140000D03*
D12*
%TO.P,J1,2*%
%TO.N,GND*%
X136820000Y-104140000D03*
%TO.P,J1,3*%
%TO.N,CC1*%
X134280000Y-104140000D03*
%TO.P,J1,4*%
%TO.N,N/C*%
X131740000Y-104140000D03*
%TO.P,J1,5*%
X129200000Y-104140000D03*
%TO.P,J1,6*%
%TO.N,CC2*%
X126660000Y-104140000D03*
%TD*%
D13*
%TO.P,C4,1*%
%TO.N,3V3*%
X112326000Y-54114000D03*
%TO.P,C4,2*%
%TO.N,GND*%
X112326000Y-59114000D03*
%TD*%
%TO.P,R5,1*%
%TO.N,CC2*%
X134182000Y-87070000D03*
D14*
%TO.P,R5,2*%
%TO.N,GND*%
X134182000Y-79450000D03*
%TD*%
D21*
%TO.N,3V3*%
X133604000Y-73406000D03*
%TD*%
D22*
%TO.N,GND*%
X120690000Y-78146000D02*
X120690000Y-84300000D01*
X120942000Y-97988000D02*
X120874000Y-98056000D01*
X141702000Y-77948000D02*
X141702000Y-82444000D01*
D23*
X126860000Y-44564000D02*
X127612000Y-45316000D01*
X119286000Y-99644000D02*
X120874000Y-98056000D01*
D22*
X120942000Y-91298000D02*
X120942000Y-97988000D01*
X120874000Y-101630000D02*
X119322000Y-103182000D01*
X120690000Y-78146000D02*
X117942000Y-78146000D01*
X130302000Y-74422000D02*
X133096000Y-77216000D01*
X140970000Y-77216000D02*
X141702000Y-77948000D01*
X132534000Y-101570000D02*
X134888000Y-99216000D01*
X120934000Y-101570000D02*
X132534000Y-101570000D01*
X138745000Y-98656000D02*
X135448000Y-98656000D01*
X117942000Y-78146000D02*
X116458000Y-79630000D01*
X138745000Y-45341000D02*
X138745000Y-45316000D01*
X138745000Y-96116000D02*
X138745000Y-98656000D01*
X120396000Y-102108000D02*
X120934000Y-101570000D01*
X142328000Y-48924000D02*
X138745000Y-45341000D01*
X135448000Y-98656000D02*
X134888000Y-99216000D01*
D23*
X127612000Y-45316000D02*
X138745000Y-45316000D01*
D22*
X124414000Y-74422000D02*
X130302000Y-74422000D01*
X120874000Y-98056000D02*
X120874000Y-101630000D01*
X133096000Y-77216000D02*
X140970000Y-77216000D01*
X121014000Y-84624000D02*
X121014000Y-91226000D01*
X121014000Y-91226000D02*
X120942000Y-91298000D01*
X119322000Y-103182000D02*
X119286000Y-103182000D01*
X120690000Y-78146000D02*
X124414000Y-74422000D01*
X112898000Y-79630000D02*
X112198000Y-80330000D01*
D23*
X126860000Y-41592500D02*
X126860000Y-44564000D01*
D22*
X116458000Y-79630000D02*
X112898000Y-79630000D01*
X120690000Y-84300000D02*
X121014000Y-84624000D01*
%TO.N,3V3*%
X115885000Y-45316000D02*
X117856000Y-47287000D01*
X130556000Y-64516000D02*
X131064000Y-65024000D01*
X117856000Y-47287000D02*
X117856000Y-64516000D01*
X117856000Y-64516000D02*
X130556000Y-64516000D01*
X132842000Y-74168000D02*
X133604000Y-73406000D01*
X131064000Y-65024000D02*
X131064000Y-74168000D01*
X131064000Y-74168000D02*
X132842000Y-74168000D01*
%TO.N,STS_LED*%
X134958000Y-47856000D02*
X133816000Y-48998000D01*
X138745000Y-47856000D02*
X134958000Y-47856000D01*
%TO.N,GATE*%
X112194000Y-72706000D02*
X112198000Y-72710000D01*
X112194000Y-69522000D02*
X112194000Y-72706000D01*
%TO.N,Net-(R1-Pad1)*%
X114539000Y-61902000D02*
X115885000Y-60556000D01*
X112194000Y-61902000D02*
X114539000Y-61902000D01*
%TO.N,Net-(L1-Pad2)*%
X133816000Y-56618000D02*
X142254000Y-56618000D01*
X142254000Y-56618000D02*
X142328000Y-56544000D01*
%TO.N,SW_UP*%
X136324000Y-80876000D02*
X132576000Y-84624000D01*
X128634000Y-84624000D02*
X129966000Y-85956000D01*
X138745000Y-80876000D02*
X136324000Y-80876000D01*
X132576000Y-84624000D02*
X128634000Y-84624000D01*
%TO.N,SW_R*%
X135645000Y-91596000D02*
X138745000Y-88496000D01*
X134888000Y-91596000D02*
X135645000Y-91596000D01*
%TO.N,SW_DW*%
X128918000Y-98480000D02*
X128494000Y-98056000D01*
X137599000Y-84810000D02*
X134810000Y-84810000D01*
X131680000Y-87316396D02*
X131680000Y-98480000D01*
X134810000Y-84810000D02*
X134800000Y-84800000D01*
X134800000Y-84800000D02*
X134196396Y-84800000D01*
X131680000Y-98480000D02*
X128918000Y-98480000D01*
X134196396Y-84800000D02*
X131680000Y-87316396D01*
X138745000Y-85956000D02*
X137599000Y-84810000D01*
%TO.N,SW_L*%
X128646000Y-77810000D02*
X128310000Y-78146000D01*
X138219000Y-77810000D02*
X128646000Y-77810000D01*
X128310000Y-78146000D02*
X128500000Y-78336000D01*
X138745000Y-78336000D02*
X138219000Y-77810000D01*
%TO.N,SW_C*%
X128562000Y-89798000D02*
X134944000Y-83416000D01*
X128562000Y-91298000D02*
X128562000Y-89798000D01*
X134944000Y-83416000D02*
X138745000Y-83416000D01*
%TD*%
M02*
