M48
; DRILL file {KiCad 6.0.11-2627ca5db0~126~ubuntu22.04.1} date Thu Jun 25 22:49:16 2026
; FORMAT={-:-/ absolute / inch / decimal}
; #@! TF.CreationDate,2026-06-25T22:49:16+05:30
; #@! TF.GenerationSoftware,Kicad,Pcbnew,6.0.11-2627ca5db0~126~ubuntu22.04.1
; #@! TF.FileFunction,Plated,1,2,PTH
FMAT,2
INCH
; #@! TA.AperFunction,Plated,PTH,ViaDrill
T1C0.0157
; #@! TA.AperFunction,Plated,PTH,ComponentDrill
T2C0.0295
; #@! TA.AperFunction,Plated,PTH,ComponentDrill
T3C0.0315
; #@! TA.AperFunction,Plated,PTH,ComponentDrill
T4C0.0394
; #@! TA.AperFunction,Plated,PTH,ComponentDrill
T5C0.0402
%
G90
G05
T1
X5.26Y-2.89
T2
X4.6963Y-4.0691
X4.775Y-4.0691
T3
X4.4171Y-2.4371
X4.4171Y-2.7371
X4.4172Y-2.8626
X4.4172Y-3.1626
X4.4223Y-2.1305
X4.4223Y-2.3273
X5.2828Y-3.128
X5.2828Y-3.428
X5.5788Y-3.2458
X5.5788Y-3.5458
X5.5808Y-2.6576
X5.5808Y-2.9576
X5.5808Y-3.6482
X5.5808Y-3.9482
X5.6035Y-1.9261
X5.6035Y-2.2261
T4
X4.8945Y-1.6375
X4.9866Y-4.1
X4.9945Y-1.6375
X5.0866Y-4.1
X5.0945Y-1.6375
X5.1866Y-4.1
X5.1945Y-1.6375
X5.2866Y-4.1
X5.2945Y-1.6375
X5.3866Y-4.1
X5.3945Y-1.6375
X5.4866Y-4.1
X5.4945Y-1.6375
X5.5945Y-1.6375
T5
X4.5624Y-1.7841
X4.5624Y-1.8841
X4.5624Y-1.9841
X4.5624Y-2.0841
X4.5624Y-2.1841
X4.5624Y-2.2841
X4.5624Y-2.3841
X4.5624Y-2.4841
X4.5624Y-2.5841
X4.5624Y-2.6841
X4.5624Y-2.7841
X4.5624Y-2.8841
X4.5624Y-2.9841
X4.5624Y-3.0841
X4.5624Y-3.1841
X4.5624Y-3.2841
X4.5624Y-3.3841
X4.5624Y-3.4841
X4.5624Y-3.5841
X4.5624Y-3.6841
X4.5624Y-3.7841
X4.5624Y-3.8841
X5.4624Y-1.7841
X5.4624Y-1.8841
X5.4624Y-1.9841
X5.4624Y-2.0841
X5.4624Y-2.1841
X5.4624Y-2.2841
X5.4624Y-2.3841
X5.4624Y-2.4841
X5.4624Y-2.5841
X5.4624Y-2.6841
X5.4624Y-2.7841
X5.4624Y-2.8841
X5.4624Y-2.9841
X5.4624Y-3.0841
X5.4624Y-3.1841
X5.4624Y-3.2841
X5.4624Y-3.3841
X5.4624Y-3.4841
X5.4624Y-3.5841
X5.4624Y-3.6841
X5.4624Y-3.7841
X5.4624Y-3.8841
T0
M30
